<?xml version="1.0" standalone="no"?>
<!DOCTYPE svg PUBLIC "-//W3C//DTD SVG 20010904//EN"
 "http://www.w3.org/TR/2001/REC-SVG-20010904/DTD/svg10.dtd">
<svg version="1.0" xmlns="http://www.w3.org/2000/svg"
 width="500.000000pt" height="500.000000pt" viewBox="0 0 500.000000 500.000000"
 preserveAspectRatio="xMidYMid meet">

<g transform="translate(0.000000,500.000000) scale(0.100000,-0.100000)"
fill="#000000" stroke="none">
<path d="M2194 4264 c-749 -135 -1314 -695 -1456 -1441 -32 -171 -32 -476 0
-648 161 -853 897 -1465 1762 -1465 867 0 1599 610 1762 1467 32 170 32 475 0
648 -122 648 -578 1171 -1203 1376 -276 90 -589 113 -865 63z m42 -767 c7 -20
-24 -87 -41 -87 -19 0 -19 21 -1 65 15 36 33 45 42 22z m-76 -73 c10 -47 17
-59 53 -85 93 -68 237 -123 400 -153 l77 -14 0 34 c0 36 23 48 34 18 6 -15 8
-15 26 1 33 30 37 -7 5 -49 -26 -35 -27 -38 -16 -98 6 -35 23 -103 38 -151
l27 -88 43 68 43 68 -38 3 c-20 2 -41 7 -46 12 -6 6 13 43 47 95 31 46 57 87
57 90 0 3 -14 5 -30 5 -17 0 -33 6 -36 14 -7 18 144 246 159 240 19 -7 159
-232 152 -244 -3 -5 -19 -10 -36 -10 -16 0 -29 -3 -29 -6 0 -3 25 -44 55 -91
31 -46 53 -88 50 -94 -4 -5 -24 -9 -46 -9 -21 0 -39 -2 -39 -5 0 -2 31 -53 69
-112 85 -130 83 -135 -33 -131 -68 3 -81 6 -84 21 -3 15 5 17 62 17 36 0 66 2
66 4 0 3 -32 53 -70 113 -39 59 -69 112 -67 118 2 5 22 12 45 15 l42 5 -55 82
c-66 98 -68 113 -20 113 19 0 35 2 35 5 0 3 -23 40 -51 82 l-51 76 -49 -74
c-26 -41 -48 -77 -49 -81 0 -5 13 -8 29 -8 17 0 33 -5 36 -10 4 -6 -19 -50
-49 -98 l-56 -87 34 -3 c61 -6 60 -19 -9 -125 l-64 -98 20 -47 c38 -89 114
-212 208 -339 l46 -62 428 -1 427 0 0 -285 0 -285 -1450 0 -1450 0 0 285 0
285 349 0 349 0 40 63 c175 277 371 837 341 972 -12 55 -10 95 5 95 10 0 19
-19 26 -56z m858 -296 c2 -16 11 -28 23 -31 20 -5 20 -6 -1 -44 -18 -35 -20
-55 -20 -264 0 -185 -3 -228 -14 -232 -23 -9 -26 2 -26 89 l0 83 -47 3 c-35 2
-48 7 -48 18 0 11 13 16 48 18 l47 3 0 38 c0 23 -8 48 -20 64 -11 14 -20 31
-20 37 0 7 8 10 20 7 19 -5 20 0 20 112 0 65 3 121 7 125 13 12 28 0 31 -26z"/>
<path d="M2195 3269 c17 -77 80 -271 121 -374 82 -200 166 -337 277 -452 l70
-73 185 0 c180 0 184 0 171 19 -186 262 -277 455 -313 659 -7 46 -16 84 -17
86 -2 1 -49 11 -104 21 -127 23 -199 46 -300 98 -44 23 -84 44 -89 46 -4 2 -5
-12 -1 -30z"/>
<path d="M2142 3176 c-32 -171 -156 -489 -268 -687 -32 -57 -61 -107 -62 -112
-2 -4 45 -6 105 -5 l108 3 23 46 c33 67 70 225 90 389 21 178 34 187 72 55 33
-113 76 -197 140 -274 27 -33 50 -62 50 -64 0 -3 -16 -31 -35 -63 -57 -95 -58
-94 101 -94 l136 0 -52 58 c-122 135 -246 369 -329 617 -28 83 -51 158 -51
167 0 9 -4 19 -8 22 -5 3 -14 -23 -20 -58z"/>
<path d="M2210 2715 c1 -35 37 -188 60 -248 l21 -57 26 47 c13 27 29 52 33 57
5 5 -7 27 -28 51 -20 23 -54 71 -74 106 -23 37 -38 55 -38 44z"/>
<path d="M2151 2643 c-11 -70 -48 -193 -75 -255 -7 -16 -1 -18 68 -18 44 0 76
-4 76 -10 0 -5 11 -10 25 -10 31 0 31 4 1 72 -13 30 -34 97 -46 149 -12 52
-25 107 -29 124 -6 25 -9 16 -20 -52z"/>
<path d="M3201 2217 c-33 -16 -38 -37 -11 -44 20 -5 21 -9 15 -82 -4 -42 -8
-83 -11 -91 -2 -8 1 -22 6 -30 9 -13 11 -13 20 0 6 8 13 31 16 51 6 34 10 37
45 43 97 16 106 113 13 152 -41 17 -62 17 -93 1z m100 -47 c26 -14 24 -34 -6
-54 -37 -24 -45 -20 -45 24 0 43 13 50 51 30z"/>
<path d="M1772 2211 c-17 -10 -82 -153 -89 -194 -6 -42 13 -52 35 -17 18 30
70 27 82 -4 10 -28 26 -40 34 -27 6 9 -10 190 -20 223 -6 19 -26 29 -42 19z
m18 -133 c0 -21 -5 -28 -18 -28 -29 0 -32 9 -14 46 17 38 32 29 32 -18z"/>
<path d="M2266 2177 c-33 -55 -78 -176 -71 -188 10 -16 33 -10 40 11 5 15 15
20 38 20 25 0 36 -7 50 -32 29 -51 36 -22 23 94 -11 97 -25 138 -47 138 -4 0
-19 -19 -33 -43z m43 -109 c1 -13 -6 -18 -24 -18 -30 0 -30 0 -9 48 16 36 17
37 24 12 5 -14 8 -33 9 -42z"/>
<path d="M2840 2188 c-33 -54 -82 -179 -76 -194 8 -20 24 -17 36 6 7 14 21 20
43 20 27 0 35 -5 44 -30 6 -16 17 -30 24 -30 9 0 10 22 5 91 -9 122 -15 148
-37 160 -16 8 -22 4 -39 -23z m30 -98 c0 -33 -3 -40 -20 -40 -24 0 -25 11 -5
50 21 40 25 38 25 -10z"/>
<path d="M1205 2201 c-13 -23 -45 -147 -47 -184 -1 -37 12 -56 38 -57 16 0 94
58 94 70 0 15 -27 12 -62 -6 l-31 -16 6 29 c26 122 30 154 20 164 -8 8 -13 7
-18 0z"/>
<path d="M2085 2201 c-13 -23 -45 -147 -47 -184 -1 -37 12 -56 38 -57 16 0 94
58 94 70 0 15 -27 12 -62 -6 l-31 -16 6 29 c26 122 30 154 20 164 -8 8 -13 7
-18 0z"/>
<path d="M3698 2183 c-51 -55 -61 -98 -30 -126 10 -10 30 -17 45 -17 23 0 26
-4 29 -42 2 -23 8 -43 15 -45 14 -5 33 56 33 105 0 20 6 35 15 38 8 4 15 13
15 21 0 11 -11 13 -42 11 -35 -2 -42 -6 -40 -20 2 -13 -4 -18 -23 -18 -23 0
-25 2 -14 23 6 12 25 34 42 48 31 27 30 49 -2 49 -9 0 -29 -12 -43 -27z"/>
<path d="M2627 2188 c-18 -14 -47 -78 -47 -105 0 -9 9 -36 20 -59 23 -47 62
-69 104 -58 34 8 28 28 -10 32 -43 5 -64 29 -64 74 0 22 5 48 10 59 11 20 45
26 55 9 10 -17 25 -11 25 9 0 22 -35 51 -60 51 -9 0 -24 -6 -33 -12z"/>
<path d="M2992 2168 c-14 -45 -35 -188 -28 -195 15 -16 35 11 41 56 6 48 8 51
31 45 18 -5 32 0 48 15 l23 22 5 -71 c6 -74 10 -86 27 -75 7 3 11 43 11 96 0
130 -22 160 -74 98 -23 -27 -27 -28 -32 -12 -18 57 -39 66 -52 21z"/>
<path d="M3394 2187 c-10 -28 -10 -216 1 -217 23 -2 40 199 18 221 -10 10 -14
9 -19 -4z"/>
<path d="M1623 2178 c-5 -7 -20 -39 -33 -70 -12 -32 -26 -58 -30 -58 -4 0 -12
24 -19 54 -14 61 -34 87 -54 67 -16 -16 -17 -213 -1 -218 7 -2 14 15 19 44 l7
48 14 -33 c17 -41 42 -52 61 -26 14 19 44 110 58 172 7 33 -4 43 -22 20z"/>
<path d="M3586 2138 c-12 -29 -26 -61 -29 -71 -10 -27 -24 -12 -32 33 -8 48
-39 90 -54 75 -14 -14 -25 -196 -13 -214 16 -23 32 -2 32 42 l1 42 20 -37 c35
-68 64 -44 98 82 24 85 25 100 10 100 -5 0 -20 -24 -33 -52z"/>
<path d="M1364 2172 c-34 -22 -59 -112 -44 -157 18 -56 66 -56 100 0 47 77 5
197 -56 157z m41 -61 c-11 -48 -27 -81 -40 -81 -14 0 -6 61 14 98 16 29 34 18
26 -17z"/>
<path d="M1877 2153 c-3 -5 4 -47 15 -95 18 -82 38 -112 59 -91 14 14 59 143
59 169 0 36 -16 22 -48 -42 l-28 -55 -13 50 c-12 49 -34 80 -44 64z"/>
</g>
</svg>
